{
    "asset" : {
        "generator" : "Khronos glTF Blender I/O v1.4.40",
        "version" : "2.0"
    },
    "scene" : 0,
    "scenes" : [
        {
            "name" : "Scene",
            "nodes" : [
                0,
                1
            ]
        }
    ],
    "nodes" : [
        {
            "mesh" : 0,
            "name" : "Sphere"
        },
        {
            "mesh" : 1,
            "name" : "Torus"
        }
    ],
    "meshes" : [
        {
            "name" : "Sphere",
            "primitives" : [
                {
                    "attributes" : {
                        "POSITION" : 0,
                        "NORMAL" : 1,
                        "TEXCOORD_0" : 2
                    },
                    "indices" : 3
                }
            ]
        },
        {
            "name" : "Torus",
            "primitives" : [
                {
                    "attributes" : {
                        "POSITION" : 4,
                        "NORMAL" : 5,
                        "TEXCOORD_0" : 6
                    },
                    "indices" : 7
                }
            ]
        }
    ],
    "accessors" : [
        {
            "bufferView" : 0,
            "componentType" : 5126,
            "count" : 26788,
            "max" : [
                0.9998986721038818,
                1,
                0.9996042251586914
            ],
            "min" : [
                -0.999897837638855,
                -1,
                -1
            ],
            "type" : "VEC3"
        },
        {
            "bufferView" : 1,
            "componentType" : 5126,
            "count" : 26788,
            "type" : "VEC3"
        },
        {
            "bufferView" : 2,
            "componentType" : 5126,
            "count" : 26788,
            "type" : "VEC2"
        },
        {
            "bufferView" : 3,
            "componentType" : 5123,
            "count" : 157974,
            "type" : "SCALAR"
        },
        {
            "bufferView" : 4,
            "componentType" : 5126,
            "count" : 3333,
            "max" : [
                1.880000114440918,
                0.1899999976158142,
                1.880000114440918
            ],
            "min" : [
                -1.880000114440918,
                -0.1899999976158142,
                -1.880000114440918
            ],
            "type" : "VEC3"
        },
        {
            "bufferView" : 5,
            "componentType" : 5126,
            "count" : 3333,
            "type" : "VEC3"
        },
        {
            "bufferView" : 6,
            "componentType" : 5126,
            "count" : 3333,
            "type" : "VEC2"
        },
        {
            "bufferView" : 7,
            "componentType" : 5123,
            "count" : 19200,
            "type" : "SCALAR"
        }
    ],
    "bufferViews" : [
        {
            "buffer" : 0,
            "byteLength" : 321456,
            "byteOffset" : 0
        },
        {
            "buffer" : 0,
            "byteLength" : 321456,
            "byteOffset" : 321456
        },
        {
            "buffer" : 0,
            "byteLength" : 214304,
            "byteOffset" : 642912
        },
        {
            "buffer" : 0,
            "byteLength" : 315948,
            "byteOffset" : 857216
        },
        {
            "buffer" : 0,
            "byteLength" : 39996,
            "byteOffset" : 1173164
        },
        {
            "buffer" : 0,
            "byteLength" : 39996,
            "byteOffset" : 1213160
        },
        {
            "buffer" : 0,
            "byteLength" : 26664,
            "byteOffset" : 1253156
        },
        {
            "buffer" : 0,
            "byteLength" : 38400,
            "byteOffset" : 1279820
        }
    ],
    "buffers" : [
        {
            "byteLength" : 1318220,
            "uri" : "data:application/octet-stream;base64,"
        }
    ]
}
