{
    "asset": {
        "generator": "Khronos glTF Blender I/O v1.4.40",
        "version": "2.0"
    },
    "scene": 0,
    "scenes": [
        {
            "name": "Scene",
            "nodes": [0, 1, 2, 3, 4, 5]
        }
    ],
    "nodes": [
        {
            "mesh": 0,
            "name": "Plane",
            "scale": [1.987982988357544, 1.987982988357544, 1.987982988357544]
        },
        {
            "mesh": 1,
            "name": "Cube",
            "scale": [
                -0.11652000993490219, -0.11652000993490219, -0.11652000993490219
            ],
            "translation": [
                0.17525365948677063, 0.12037300318479538, 0.3132009208202362
            ]
        },
        {
            "mesh": 2,
            "name": "Cube.001",
            "scale": [
                -0.11652000993490219, -0.11652000993490219, -0.11652000993490219
            ],
            "translation": [
                0.4648960828781128, 0.12037302553653717, -0.5565178394317627
            ]
        },
        {
            "name": "Point",
            "translation": [
                0.2641564607620239, 0.016995280981063843, 0.07359931617975235
            ]
        },
        {
            "name": "Camera",
            "rotation": [
                0.43776553869247437, -0.5553029179573059, 0.43776556849479675,
                0.5553029179573059
            ],
            "translation": [
                -4.680000305175781, 0.85999995470047, -0.009999999776482582
            ]
        },
        {
            "mesh": 3,
            "name": "Cube.002",
            "scale": [
                -0.11652000993490219, -0.11652000993490219, -0.11652000993490219
            ],
            "translation": [
                0.015253636986017227, 0.12037300318479538, -0.06679904460906982
            ]
        }
    ],
    "materials": [
        {
            "doubleSided": true,
            "name": "Material.001",
            "pbrMetallicRoughness": {
                "baseColorTexture": {
                    "index": 0,
                    "texCoord": 0
                },
                "metallicFactor": 0,
                "roughnessFactor": 0.5
            }
        },
        {
            "doubleSided": true,
            "name": "Material.006",
            "pbrMetallicRoughness": {
                "metallicFactor": 0,
                "roughnessFactor": 0.5
            }
        },
        {
            "alphaMode": "BLEND",
            "doubleSided": true,
            "name": "Material.004",
            "pbrMetallicRoughness": {
                "baseColorFactor": [1, 0, 0, 0.10000000149011612],
                "metallicFactor": 0,
                "roughnessFactor": 0.5
            }
        },
        {
            "alphaMode": "BLEND",
            "doubleSided": true,
            "name": "Material.005",
            "pbrMetallicRoughness": {
                "baseColorFactor": [1, 0, 0, 1],
                "metallicFactor": 0,
                "roughnessFactor": 0.5
            }
        }
    ],
    "meshes": [
        {
            "name": "Plane",
            "primitives": [
                {
                    "attributes": {
                        "POSITION": 0,
                        "NORMAL": 1,
                        "TEXCOORD_0": 2
                    },
                    "indices": 3,
                    "material": 0
                }
            ]
        },
        {
            "name": "Cube.001",
            "primitives": [
                {
                    "attributes": {
                        "POSITION": 4,
                        "NORMAL": 5,
                        "TEXCOORD_0": 6
                    },
                    "indices": 7,
                    "material": 1
                }
            ]
        },
        {
            "name": "Cube.002",
            "primitives": [
                {
                    "attributes": {
                        "POSITION": 8,
                        "NORMAL": 9,
                        "TEXCOORD_0": 10
                    },
                    "indices": 7,
                    "material": 2
                }
            ]
        },
        {
            "name": "Cube.003",
            "primitives": [
                {
                    "attributes": {
                        "POSITION": 11,
                        "NORMAL": 12,
                        "TEXCOORD_0": 13
                    },
                    "indices": 7,
                    "material": 3
                }
            ]
        }
    ],
    "textures": [
        {
            "sampler": 0,
            "source": 0
        }
    ],
    "images": [
        {
            "uri": "planks.jpg"
        }
    ],
    "accessors": [
        {
            "bufferView": 0,
            "componentType": 5126,
            "count": 4,
            "max": [1, 0, 1],
            "min": [-1, 0, -1],
            "type": "VEC3"
        },
        {
            "bufferView": 1,
            "componentType": 5126,
            "count": 4,
            "type": "VEC3"
        },
        {
            "bufferView": 2,
            "componentType": 5126,
            "count": 4,
            "type": "VEC2"
        },
        {
            "bufferView": 3,
            "componentType": 5123,
            "count": 6,
            "type": "SCALAR"
        },
        {
            "bufferView": 5,
            "componentType": 5126,
            "count": 24,
            "max": [1, 1, 1],
            "min": [-1, -1, -1],
            "type": "VEC3"
        },
        {
            "bufferView": 6,
            "componentType": 5126,
            "count": 24,
            "type": "VEC3"
        },
        {
            "bufferView": 7,
            "componentType": 5126,
            "count": 24,
            "type": "VEC2"
        },
        {
            "bufferView": 8,
            "componentType": 5123,
            "count": 36,
            "type": "SCALAR"
        },
        {
            "bufferView": 9,
            "componentType": 5126,
            "count": 24,
            "max": [1, 1, 1],
            "min": [-1, -1, -1],
            "type": "VEC3"
        },
        {
            "bufferView": 10,
            "componentType": 5126,
            "count": 24,
            "type": "VEC3"
        },
        {
            "bufferView": 11,
            "componentType": 5126,
            "count": 24,
            "type": "VEC2"
        },
        {
            "bufferView": 12,
            "componentType": 5126,
            "count": 24,
            "max": [1, 1, 1],
            "min": [-1, -1, -1],
            "type": "VEC3"
        },
        {
            "bufferView": 13,
            "componentType": 5126,
            "count": 24,
            "type": "VEC3"
        },
        {
            "bufferView": 14,
            "componentType": 5126,
            "count": 24,
            "type": "VEC2"
        }
    ],
    "bufferViews": [
        {
            "buffer": 0,
            "byteLength": 48,
            "byteOffset": 0
        },
        {
            "buffer": 0,
            "byteLength": 48,
            "byteOffset": 48
        },
        {
            "buffer": 0,
            "byteLength": 32,
            "byteOffset": 96
        },
        {
            "buffer": 0,
            "byteLength": 12,
            "byteOffset": 128
        },
        {
            "buffer": 0,
            "byteLength": 95178,
            "byteOffset": 140
        },
        {
            "buffer": 0,
            "byteLength": 288,
            "byteOffset": 95320
        },
        {
            "buffer": 0,
            "byteLength": 288,
            "byteOffset": 95608
        },
        {
            "buffer": 0,
            "byteLength": 192,
            "byteOffset": 95896
        },
        {
            "buffer": 0,
            "byteLength": 72,
            "byteOffset": 96088
        },
        {
            "buffer": 0,
            "byteLength": 288,
            "byteOffset": 96160
        },
        {
            "buffer": 0,
            "byteLength": 288,
            "byteOffset": 96448
        },
        {
            "buffer": 0,
            "byteLength": 192,
            "byteOffset": 96736
        },
        {
            "buffer": 0,
            "byteLength": 288,
            "byteOffset": 96928
        },
        {
            "buffer": 0,
            "byteLength": 288,
            "byteOffset": 97216
        },
        {
            "buffer": 0,
            "byteLength": 192,
            "byteOffset": 97504
        }
    ],
    "samplers": [
        {
            "magFilter": 9729,
            "minFilter": 9986
        }
    ],
    "buffers": [
        {
            "byteLength": 97696,
            "uri": "data:application/octet-stream;base64,"
        }
    ]
}
